<?xml version="1.0" encoding="UTF-8" standalone="no"?>
<svg xmlns="http://www.w3.org/2000/svg" width="1024" height="1024" viewBox="0 0 1024 1024" role="img" aria-label="asERP">
  <title>asERP</title>
  <rect width="1024" height="1024" rx="224" ry="224" fill="#131D33"/>
  <g transform="translate(183.28 632.83)">
    <path fill="#FFFFFF" d="M96.1572 4.13086Q59.668 4.13086 36.3745 -13.6548Q13.0811 -31.4404 13.0811 -67.7002Q13.0811 -95.0098 25.8179 -110.845Q38.5547 -126.68 59.8975 -134.253Q81.2402 -141.826 107.173 -143.892Q139.761 -146.646 153.071 -150.547Q166.382 -154.448 166.382 -165.464L166.382 -166.611Q166.382 -177.397 157.317 -184.167Q148.252 -190.937 132.646 -190.938Q116.123 -190.938 106.37 -183.594Q96.6162 -176.25 95.4688 -163.857L22.0313 -163.857Q24.5557 -203.33 53.5864 -225.476Q82.6172 -247.622 135.4 -247.622Q188.184 -247.622 216.411 -225.476Q244.639 -203.33 244.639 -163.169L244.639 0L167.529 0L167.529 -33.9648L166.611 -33.9648Q155.825 -14.458 138.843 -5.16357Q121.86 4.13086 96.1572 4.13086ZM120.254 -47.5049Q139.99 -47.5049 153.53 -58.4058Q167.07 -69.3066 167.07 -87.207L167.07 -109.238Q160.874 -106.255 149.858 -103.96Q138.843 -101.665 124.155 -99.1406Q108.32 -96.6162 98.1079 -89.9609Q87.8955 -83.3057 87.8955 -71.3721Q87.8955 -60.1269 96.8457 -53.8159Q105.796 -47.5049 120.254 -47.5049ZM386.245 5.9668Q352.739 5.9668 326.806 -4.13086Q300.873 -14.2285 285.383 -33.0469Q269.892 -51.8652 267.827 -77.5684L345.624 -77.5684Q347.46 -64.0283 357.558 -56.2256Q367.656 -48.4229 385.097 -48.4229Q401.391 -48.4229 410.571 -54.1602Q419.75 -59.8975 419.75 -69.0771Q419.75 -84.2236 390.375 -89.502L346.542 -97.3047Q310.742 -103.73 292.038 -121.86Q273.334 -139.99 273.334 -168.677Q273.334 -204.478 302.25 -225.935Q331.166 -247.393 381.884 -247.393Q432.602 -247.393 462.665 -224.902Q492.729 -202.412 493.876 -163.628L421.127 -163.628Q420.898 -176.25 410.685 -184.741Q400.473 -193.232 384.638 -193.232Q369.262 -193.232 360.656 -187.266Q352.05 -181.299 352.05 -172.349Q352.05 -157.432 378.212 -152.383L426.865 -143.433Q464.272 -136.548 482.172 -120.483Q500.073 -104.419 500.073 -77.3389Q500.073 -52.5537 485.729 -33.7354Q471.386 -14.917 445.798 -4.4751Q420.209 5.9668 386.245 5.9668Z"/>
    <circle fill="#F97316" cx="595" cy="-49.35" r="49.35"/>
  </g>
</svg>
