<?xml version="1.0" encoding="UTF-8" standalone="no"?>
<svg xmlns="http://www.w3.org/2000/svg" width="1024" height="1024" viewBox="0 0 1024 1024" role="img" aria-label="asERP">
  <title>asERP</title>
  <g transform="translate(232.24 614.83)">
    <path fill="#131D33" d="M81.8359 3.51563Q50.7813 3.51563 30.957 -11.6211Q11.1328 -26.7578 11.1328 -57.6172Q11.1328 -80.8594 21.9727 -94.3359Q32.8125 -107.813 50.9766 -114.258Q69.1406 -120.703 91.2109 -122.461Q118.945 -124.805 130.273 -128.125Q141.602 -131.445 141.602 -140.82L141.602 -141.797Q141.602 -150.977 133.887 -156.738Q126.172 -162.5 112.891 -162.5Q98.8281 -162.5 90.5273 -156.25Q82.2266 -150 81.25 -139.453L18.75 -139.453Q20.8984 -173.047 45.6055 -191.895Q70.3125 -210.742 115.234 -210.742Q160.156 -210.742 184.18 -191.895Q208.203 -173.047 208.203 -138.867L208.203 0L142.578 0L142.578 -28.9063L141.797 -28.9063Q132.617 -12.3047 118.164 -4.39453Q103.711 3.51563 81.8359 3.51563ZM102.344 -40.4297Q119.141 -40.4297 130.664 -49.707Q142.188 -58.9844 142.188 -74.2188L142.188 -92.9688Q136.914 -90.4297 127.539 -88.4766Q118.164 -86.5234 105.664 -84.375Q92.1875 -82.2266 83.4961 -76.5625Q74.8047 -70.8984 74.8047 -60.7422Q74.8047 -51.1719 82.4219 -45.8008Q90.0391 -40.4297 102.344 -40.4297ZM328.719 5.07813Q300.203 5.07813 278.133 -3.51563Q256.063 -12.1094 242.879 -28.125Q229.695 -44.1406 227.938 -66.0156L294.148 -66.0156Q295.711 -54.4922 304.305 -47.8516Q312.898 -41.2109 327.742 -41.2109Q341.609 -41.2109 349.422 -46.0938Q357.234 -50.9766 357.234 -58.7891Q357.234 -71.6797 332.234 -76.1719L294.93 -82.8125Q264.461 -88.2813 248.543 -103.711Q232.625 -119.141 232.625 -143.555Q232.625 -174.023 257.234 -192.285Q281.844 -210.547 325.008 -210.547Q368.172 -210.547 393.758 -191.406Q419.344 -172.266 420.32 -139.258L358.406 -139.258Q358.211 -150 349.52 -157.227Q340.828 -164.453 327.352 -164.453Q314.266 -164.453 306.941 -159.375Q299.617 -154.297 299.617 -146.68Q299.617 -133.984 321.883 -129.688L363.289 -122.07Q395.125 -116.211 410.359 -102.539Q425.594 -88.8672 425.594 -65.8203Q425.594 -44.7266 413.387 -28.7109Q401.18 -12.6953 379.402 -3.80859Q357.625 5.07813 328.719 5.07813Z"/>
    <circle fill="#F97316" cx="506.38" cy="-42" r="42"/>
  </g>
</svg>
