<?xml version="1.0" encoding="UTF-8" standalone="no"?>
<svg xmlns="http://www.w3.org/2000/svg" viewBox="0 0 426.3 128.83" role="img" aria-label="asERP">
  <title>asERP</title>
  <g transform="translate(16.66 107.3)">
    <path fill="#131D33" d="M24.5508 1.05469Q15.2344 1.05469 9.28711 -3.48633Q3.33984 -8.02734 3.33984 -17.2852Q3.33984 -24.2578 6.5918 -28.3008Q9.84375 -32.3438 15.293 -34.2773Q20.7422 -36.2109 27.3633 -36.7383Q35.6836 -37.4414 39.082 -38.4375Q42.4805 -39.4336 42.4805 -42.2461L42.4805 -42.5391Q42.4805 -45.293 40.166 -47.0215Q37.8516 -48.75 33.8672 -48.75Q29.6484 -48.75 27.1582 -46.875Q24.668 -45 24.375 -41.8359L5.625 -41.8359Q6.26953 -51.9141 13.6816 -57.5684Q21.0937 -63.2226 34.5703 -63.2227Q48.0469 -63.2227 55.2539 -57.5684Q62.4609 -51.9141 62.4609 -41.6602L62.4609 0L42.7734 0L42.7734 -8.67188L42.5391 -8.67188Q39.7852 -3.69141 35.4492 -1.31836Q31.1133 1.05469 24.5508 1.05469ZM30.7031 -12.1289Q35.7422 -12.1289 39.1992 -14.9121Q42.6563 -17.6953 42.6563 -22.2656L42.6563 -27.8906Q41.0742 -27.1289 38.2617 -26.543Q35.4492 -25.957 31.6992 -25.3125Q27.6563 -24.668 25.0488 -22.9688Q22.4414 -21.2695 22.4414 -18.2227Q22.4414 -15.3516 24.7266 -13.7402Q27.0117 -12.1289 30.7031 -12.1289ZM99.2156 1.52344Q90.6609 1.52344 84.0398 -1.05469Q77.4187 -3.63281 73.4637 -8.4375Q69.5086 -13.2422 68.9812 -19.8047L88.8445 -19.8047Q89.3133 -16.3477 91.8914 -14.3555Q94.4695 -12.3633 98.9227 -12.3633Q103.083 -12.3633 105.427 -13.8281Q107.77 -15.293 107.77 -17.6367Q107.77 -21.5039 100.27 -22.8516L89.0789 -24.8438Q79.9383 -26.4844 75.1629 -31.1133Q70.3875 -35.7422 70.3875 -43.0664Q70.3875 -52.207 77.7703 -57.6855Q85.1531 -63.1641 98.1023 -63.1641Q111.052 -63.1641 118.727 -57.4219Q126.403 -51.6797 126.696 -41.7773L108.122 -41.7773Q108.063 -45 105.456 -47.168Q102.848 -49.3359 98.8055 -49.3359Q94.8797 -49.3359 92.6824 -47.8125Q90.4852 -46.2891 90.4852 -44.0039Q90.4852 -40.1953 97.1648 -38.9063L109.587 -36.6211Q119.137 -34.8633 123.708 -30.7617Q128.278 -26.6602 128.278 -19.7461Q128.278 -13.418 124.616 -8.61328Q120.954 -3.80859 114.421 -1.14258Q107.887 1.52344 99.2156 1.52344ZM134.74 0L134.74 -87.3047L199.779 -87.3047L199.779 -69.375L155.834 -69.375L155.834 -52.5586L196.439 -52.5586L196.439 -35.1563L155.834 -35.1563L155.834 -17.9297L199.779 -17.9297L199.779 0L134.74 0ZM207.237 0L207.237 -87.3047L243.213 -87.3047Q253.35 -87.3047 260.733 -83.7012Q268.116 -80.0977 272.129 -73.4766Q276.143 -66.8555 276.143 -57.7734Q276.143 -49.3945 272.334 -43.125Q268.526 -36.8555 261.67 -33.2813L278.428 0L256.162 0L241.924 -29.0039L228.33 -29.0039L228.33 0L207.237 0ZM228.33 -45.5859L241.807 -45.5859Q248.135 -45.5859 251.827 -48.9258Q255.518 -52.2656 255.518 -57.7734Q255.518 -63.3398 251.827 -66.6797Q248.135 -70.0195 241.748 -70.0195L228.33 -70.0195L228.33 -45.5859ZM284.362 0L284.362 -87.3047L320.105 -87.3047Q330.183 -87.3047 337.566 -83.7012Q344.948 -80.0977 348.962 -73.4766Q352.976 -66.8555 352.976 -57.7734Q352.976 -48.75 348.933 -42.1289Q344.89 -35.5078 337.478 -31.875Q330.066 -28.2422 319.987 -28.2422L305.456 -28.2422L305.456 0L284.362 0ZM305.456 -45.7617L318.64 -45.7617Q324.968 -45.7617 328.689 -49.0137Q332.409 -52.2656 332.409 -57.7734Q332.409 -63.3398 328.689 -66.5918Q324.968 -69.8438 318.64 -69.8438L305.456 -69.8438L305.456 -45.7617Z"/>
    <circle fill="#F97316" cx="377.04" cy="-12.6" r="12.6"/>
  </g>
</svg>
