<?xml version="1.0" encoding="UTF-8" standalone="no"?>
<svg xmlns="http://www.w3.org/2000/svg" width="1024" height="1024" viewBox="0 0 1024 1024" role="img" aria-label="asERP">
  <title>asERP</title>
  <g transform="translate(233.64 572.76)">
    <path fill="#131D33" d="M34.7803 1.49414Q21.582 1.49414 13.1567 -4.93896Q4.73144 -11.3721 4.73145 -24.4873Q4.73144 -34.3652 9.33838 -40.0928Q13.9453 -45.8203 21.665 -48.5596Q29.3848 -51.2988 38.7646 -52.0459Q50.5518 -53.042 55.3662 -54.4531Q60.1807 -55.8643 60.1807 -59.8486L60.1807 -60.2637Q60.1807 -64.165 56.9019 -66.6138Q53.623 -69.0625 47.9785 -69.0625Q42.002 -69.0625 38.4741 -66.4063Q34.9463 -63.75 34.5313 -59.2676L7.96875 -59.2676Q8.88183 -73.5449 19.3823 -81.5552Q29.8828 -89.5654 48.9746 -89.5654Q68.0664 -89.5654 78.2764 -81.5552Q88.4863 -73.5449 88.4863 -59.0186L88.4863 0L60.5957 0L60.5957 -12.2852L60.2637 -12.2852Q56.3623 -5.22949 50.2197 -1.86768Q44.0771 1.49414 34.7803 1.49414ZM43.4961 -17.1826Q50.6348 -17.1826 55.5322 -21.1255Q60.4297 -25.0684 60.4297 -31.543L60.4297 -39.5117Q58.1885 -38.4326 54.2041 -37.6025Q50.2197 -36.7725 44.9072 -35.8594Q39.1797 -34.9463 35.4858 -32.5391Q31.792 -30.1318 31.792 -25.8154Q31.792 -21.748 35.0293 -19.4653Q38.2666 -17.1826 43.4961 -17.1826ZM140.555 2.1582Q128.436 2.1582 119.056 -1.49414Q109.677 -5.14648 104.074 -11.9531Q98.4705 -18.7598 97.7234 -28.0566L125.863 -28.0566Q126.527 -23.1592 130.179 -20.3369Q133.832 -17.5146 140.14 -17.5146Q146.034 -17.5146 149.354 -19.5898Q152.675 -21.665 152.675 -24.9854Q152.675 -30.4639 142.05 -32.373L126.195 -35.1953Q113.246 -37.5195 106.481 -44.0771Q99.7156 -50.6348 99.7156 -61.0107Q99.7156 -73.96 110.175 -81.7212Q120.634 -89.4824 138.978 -89.4824Q157.323 -89.4824 168.197 -81.3477Q179.071 -73.2129 179.486 -59.1846L153.173 -59.1846Q153.09 -63.75 149.396 -66.8213Q145.702 -69.8926 139.974 -69.8926Q134.413 -69.8926 131.3 -67.7344Q128.187 -65.5762 128.187 -62.3389Q128.187 -56.9434 137.65 -55.1172L155.248 -51.8799Q168.778 -49.3896 175.253 -43.5791Q181.727 -37.7686 181.727 -27.9736Q181.727 -19.0088 176.539 -12.2021Q171.351 -5.39551 162.096 -1.61865Q152.841 2.1582 140.555 2.1582ZM190.881 0L190.881 -123.682L283.02 -123.682L283.02 -98.2813L220.764 -98.2813L220.764 -74.458L278.289 -74.458L278.289 -49.8047L220.764 -49.8047L220.764 -25.4004L283.02 -25.4004L283.02 0L190.881 0ZM293.585 0L293.585 -123.682L344.552 -123.682Q358.912 -123.682 369.371 -118.577Q379.83 -113.472 385.516 -104.092Q391.203 -94.7119 391.203 -81.8457Q391.203 -69.9756 385.807 -61.0938Q380.411 -52.2119 370.7 -47.1484L394.44 0L362.897 0L342.726 -41.0889L323.468 -41.0889L323.468 0L293.585 0ZM323.468 -64.5801L342.56 -64.5801Q351.525 -64.5801 356.754 -69.3115Q361.984 -74.043 361.984 -81.8457Q361.984 -89.7314 356.754 -94.4629Q351.525 -99.1943 342.477 -99.1943L323.468 -99.1943L323.468 -64.5801ZM402.847 0L402.847 -123.682L453.482 -123.682Q467.759 -123.682 478.218 -118.577Q488.677 -113.472 494.363 -104.092Q500.049 -94.7119 500.049 -81.8457Q500.049 -69.0625 494.321 -59.6826Q488.594 -50.3027 478.093 -45.1563Q467.593 -40.0098 453.316 -40.0098L432.73 -40.0098L432.73 0L402.847 0ZM432.73 -64.8291L451.406 -64.8291Q460.371 -64.8291 465.642 -69.436Q470.913 -74.043 470.913 -81.8457Q470.913 -89.7314 465.642 -94.3384Q460.371 -98.9453 451.406 -98.9453L432.73 -98.9453L432.73 -64.8291Z"/>
    <circle fill="#F97316" cx="534.14" cy="-17.85" r="17.85"/>
  </g>
</svg>
